<svg width="500" height="500" viewBox="0 0 500 500" fill="none" xmlns="http://www.w3.org/2000/svg">
<g clip-path="url(#clip0_50_9)">
<g clip-path="url(#clip1_50_9)">
<path d="M226.08 -102.443C190.068 -92.7939 174.346 -7.41733 187.874 43.0674C198.019 80.9309 232.173 112.361 280.19 99.4955C328.206 86.6294 342.069 42.3329 331.923 4.46937C318.396 -46.0153 262.093 -112.093 226.08 -102.443Z" fill="white"/>
<path d="M226.08 -102.443C190.068 -92.7939 174.346 -7.41733 187.874 43.0674C198.019 80.9309 232.173 112.361 280.19 99.4955C328.206 86.6294 342.069 42.3329 331.923 4.46937C318.396 -46.0153 262.093 -112.093 226.08 -102.443Z" fill="white"/>
</g>
<g clip-path="url(#clip2_50_9)">
<path d="M-23.9197 147.557C-59.9321 157.206 -75.6536 242.583 -62.1262 293.067C-51.9807 330.931 -17.8269 362.361 30.1896 349.495C78.2062 336.629 92.069 292.333 81.9235 254.469C68.3962 203.985 12.0927 137.907 -23.9197 147.557Z" fill="white"/>
<path d="M-23.9197 147.557C-59.9321 157.206 -75.6536 242.583 -62.1262 293.067C-51.9807 330.931 -17.8269 362.361 30.1896 349.495C78.2062 336.629 92.069 292.333 81.9235 254.469C68.3962 203.985 12.0927 137.907 -23.9197 147.557Z" fill="white"/>
</g>
<g clip-path="url(#clip3_50_9)">
<path d="M226.08 397.557C190.068 407.206 174.346 492.583 187.874 543.067C198.019 580.931 232.173 612.361 280.19 599.495C328.206 586.629 342.069 542.333 331.923 504.469C318.396 453.985 262.093 387.907 226.08 397.557Z" fill="white"/>
<path d="M226.08 397.557C190.068 407.206 174.346 492.583 187.874 543.067C198.019 580.931 232.173 612.361 280.19 599.495C328.206 586.629 342.069 542.333 331.923 504.469C318.396 453.985 262.093 387.907 226.08 397.557Z" fill="white"/>
</g>
<g clip-path="url(#clip4_50_9)">
<path d="M476.08 147.557C440.068 157.206 424.346 242.583 437.874 293.067C448.019 330.931 482.173 362.361 530.189 349.495C578.206 336.629 592.069 292.333 581.923 254.469C568.396 203.985 512.092 137.907 476.08 147.557Z" fill="white"/>
<path d="M476.08 147.557C440.068 157.206 424.346 242.583 437.874 293.067C448.019 330.931 482.173 362.361 530.189 349.495C578.206 336.629 592.069 292.333 581.923 254.469C568.396 203.985 512.092 137.907 476.08 147.557Z" fill="white"/>
</g>
</g>
<defs>
<clipPath id="clip0_50_9">
<rect width="500" height="500" fill="white"/>
</clipPath>
<clipPath id="clip1_50_9">
<rect width="223" height="223" fill="white" transform="translate(113 -79.2834) rotate(-15)"/>
</clipPath>
<clipPath id="clip2_50_9">
<rect width="223" height="223" fill="white" transform="translate(-137.06 171) rotate(-15)"/>
</clipPath>
<clipPath id="clip3_50_9">
<rect width="223" height="223" fill="white" transform="translate(113 420.66) rotate(-15)"/>
</clipPath>
<clipPath id="clip4_50_9">
<rect width="223" height="223" fill="white" transform="translate(362.94 171) rotate(-15)"/>
</clipPath>
</defs>
</svg>
